<svg width="1600" height="900" viewBox="0 0 1600 900" fill="none" xmlns="http://www.w3.org/2000/svg">
  <defs>
    <linearGradient id="bg" x1="0" y1="0" x2="1600" y2="900" gradientUnits="userSpaceOnUse">
      <stop stop-color="#0B1020"/>
      <stop offset="0.55" stop-color="#0F1C34"/>
      <stop offset="1" stop-color="#13263D"/>
    </linearGradient>
    <radialGradient id="glowCyan" cx="0" cy="0" r="1" gradientUnits="userSpaceOnUse" gradientTransform="translate(220 130) rotate(35) scale(360 220)">
      <stop stop-color="#22D3EE" stop-opacity="0.34"/>
      <stop offset="1" stop-color="#22D3EE" stop-opacity="0"/>
    </radialGradient>
    <radialGradient id="glowBlue" cx="0" cy="0" r="1" gradientUnits="userSpaceOnUse" gradientTransform="translate(1290 160) rotate(145) scale(340 220)">
      <stop stop-color="#3B82F6" stop-opacity="0.28"/>
      <stop offset="1" stop-color="#3B82F6" stop-opacity="0"/>
    </radialGradient>
    <radialGradient id="glowGreen" cx="0" cy="0" r="1" gradientUnits="userSpaceOnUse" gradientTransform="translate(1110 740) rotate(180) scale(420 250)">
      <stop stop-color="#10B981" stop-opacity="0.22"/>
      <stop offset="1" stop-color="#10B981" stop-opacity="0"/>
    </radialGradient>
    <filter id="shadow" x="-20%" y="-20%" width="140%" height="140%">
      <feDropShadow dx="0" dy="16" stdDeviation="20" flood-color="#020617" flood-opacity="0.45"/>
    </filter>
    <marker id="arrowCyan" markerWidth="14" markerHeight="14" refX="11" refY="7" orient="auto">
      <path d="M1 1L13 7L1 13" fill="none" stroke="#67E8F9" stroke-width="2.2" stroke-linecap="round" stroke-linejoin="round"/>
    </marker>
    <marker id="arrowBlue" markerWidth="14" markerHeight="14" refX="11" refY="7" orient="auto">
      <path d="M1 1L13 7L1 13" fill="none" stroke="#60A5FA" stroke-width="2.2" stroke-linecap="round" stroke-linejoin="round"/>
    </marker>
    <marker id="arrowGreen" markerWidth="14" markerHeight="14" refX="11" refY="7" orient="auto">
      <path d="M1 1L13 7L1 13" fill="none" stroke="#34D399" stroke-width="2.2" stroke-linecap="round" stroke-linejoin="round"/>
    </marker>
    <marker id="arrowViolet" markerWidth="14" markerHeight="14" refX="11" refY="7" orient="auto">
      <path d="M1 1L13 7L1 13" fill="none" stroke="#A78BFA" stroke-width="2.2" stroke-linecap="round" stroke-linejoin="round"/>
    </marker>
    <marker id="arrowAmber" markerWidth="14" markerHeight="14" refX="11" refY="7" orient="auto">
      <path d="M1 1L13 7L1 13" fill="none" stroke="#FBBF24" stroke-width="2.2" stroke-linecap="round" stroke-linejoin="round"/>
    </marker>
    <style>
      .mono { font-family: 'JetBrains Mono', 'SFMono-Regular', 'Menlo', 'Consolas', monospace; }
      .title { font: 800 74px 'JetBrains Mono', 'SFMono-Regular', 'Menlo', monospace; letter-spacing: -1.8px; }
      .cnTitle { font: 700 64px 'PingFang SC', 'Microsoft YaHei', sans-serif; letter-spacing: 1px; }
      .subtitle { font: 500 30px 'JetBrains Mono', 'PingFang SC', 'Microsoft YaHei', sans-serif; }
      .chip { font: 600 21px 'JetBrains Mono', 'PingFang SC', sans-serif; letter-spacing: 0.5px; }
      .nodeTitle { font: 700 26px 'JetBrains Mono', 'PingFang SC', sans-serif; }
      .nodeSub { font: 500 18px 'JetBrains Mono', 'PingFang SC', sans-serif; }
      .tiny { font: 500 16px 'JetBrains Mono', 'PingFang SC', sans-serif; }
    </style>
  </defs>

  <rect width="1600" height="900" fill="url(#bg)"/>
  <rect width="1600" height="900" fill="url(#glowCyan)"/>
  <rect width="1600" height="900" fill="url(#glowBlue)"/>
  <rect width="1600" height="900" fill="url(#glowGreen)"/>

  <g opacity="0.22">
    <path d="M0 48H1600M0 96H1600M0 144H1600M0 192H1600M0 240H1600M0 288H1600M0 336H1600M0 384H1600M0 432H1600M0 480H1600M0 528H1600M0 576H1600M0 624H1600M0 672H1600M0 720H1600M0 768H1600M0 816H1600" stroke="#334155" stroke-width="1"/>
    <path d="M48 0V900M96 0V900M144 0V900M192 0V900M240 0V900M288 0V900M336 0V900M384 0V900M432 0V900M480 0V900M528 0V900M576 0V900M624 0V900M672 0V900M720 0V900M768 0V900M816 0V900M864 0V900M912 0V900M960 0V900M1008 0V900M1056 0V900M1104 0V900M1152 0V900M1200 0V900M1248 0V900M1296 0V900M1344 0V900M1392 0V900M1440 0V900M1488 0V900M1536 0V900" stroke="#334155" stroke-width="1"/>
  </g>

  <g filter="url(#shadow)">
    <text x="88" y="164" class="subtitle" fill="#67E8F9">Kubernetes · Gateway API · HTTPRoute</text>
    <text x="88" y="255" class="cnTitle" fill="#F8FAFC">服务暴露与 HTTPS</text>
    <text x="88" y="326" class="title" fill="#38BDF8">TLS</text>
    <text x="92" y="392" class="subtitle" fill="#CBD5E1">cert-manager · Let's Encrypt · Auto-Renewal</text>
    <text x="92" y="444" class="subtitle" fill="#A7F3D0">证书绑定 / 自动续期 / 云原生入口治理</text>
  </g>

  <g opacity="0.85">
    <rect x="88" y="505" width="360" height="6" rx="3" fill="#38BDF8" fill-opacity="0.28"/>
    <rect x="88" y="505" width="228" height="6" rx="3" fill="#38BDF8"/>
  </g>

  <g opacity="0.92" stroke-linecap="round" stroke-width="4" fill="none">
    <path d="M340 640H470" stroke="#67E8F9" marker-end="url(#arrowCyan)"/>
    <path d="M770 602H855" stroke="#60A5FA" marker-end="url(#arrowBlue)"/>
    <path d="M770 706H855" stroke="#34D399" marker-end="url(#arrowGreen)"/>
    <path d="M1125 552H1210" stroke="#A78BFA" marker-end="url(#arrowViolet)"/>
    <path d="M1210 730H1125" stroke="#FBBF24" marker-end="url(#arrowAmber)"/>
  </g>

  <g filter="url(#shadow)">
    <rect x="120" y="575" width="220" height="130" rx="24" fill="rgba(8,51,68,0.55)"/>
    <rect x="120" y="575" width="220" height="130" rx="24" fill="#083344" fill-opacity="0.45" stroke="#22D3EE" stroke-width="2.5"/>
    <text x="170" y="622" class="nodeTitle" fill="#ECFEFF">Client</text>
    <text x="146" y="663" class="nodeSub" fill="#CFFAFE">Browser / curl / DNS</text>

    <rect x="470" y="535" width="300" height="210" rx="28" fill="#1D4ED8" fill-opacity="0.18" stroke="#60A5FA" stroke-width="2.5"/>
    <text x="560" y="590" class="nodeTitle" fill="#EFF6FF">Gateway</text>
    <text x="520" y="635" class="nodeSub" fill="#DBEAFE">HTTPS Listener: 443</text>
    <text x="535" y="669" class="nodeSub" fill="#DBEAFE">TLS Termination</text>
    <text x="520" y="713" class="tiny" fill="#93C5FD">GatewayClass / LB / Address</text>

    <rect x="855" y="520" width="270" height="120" rx="24" fill="#064E3B" fill-opacity="0.48" stroke="#34D399" stroke-width="2.5"/>
    <text x="932" y="565" class="nodeTitle" fill="#ECFDF5">HTTPRoute</text>
    <text x="904" y="607" class="nodeSub" fill="#D1FAE5">Host / Path Routing</text>

    <rect x="855" y="670" width="270" height="120" rx="24" fill="#065F46" fill-opacity="0.48" stroke="#10B981" stroke-width="2.5"/>
    <text x="915" y="715" class="nodeTitle" fill="#ECFDF5">Service / Pods</text>
    <text x="905" y="757" class="nodeSub" fill="#D1FAE5">web-svc → Deployment</text>

    <rect x="1210" y="470" width="280" height="140" rx="24" fill="#4C1D95" fill-opacity="0.42" stroke="#A78BFA" stroke-width="2.5"/>
    <text x="1270" y="520" class="nodeTitle" fill="#F5F3FF">cert-manager</text>
    <text x="1261" y="563" class="nodeSub" fill="#E9D5FF">Certificate / Secret</text>

    <rect x="1210" y="650" width="280" height="140" rx="24" fill="#78350F" fill-opacity="0.42" stroke="#FBBF24" stroke-width="2.5"/>
    <text x="1268" y="700" class="nodeTitle" fill="#FFFBEB">Let's Encrypt</text>
    <text x="1280" y="743" class="nodeSub" fill="#FEF3C7">ACME HTTP-01</text>
  </g>
</svg>
